<svg width="7" height="4" viewBox="0 0 7 4" fill="none" xmlns="http://www.w3.org/2000/svg">
<path d="M2.84025 3.85231C2.80642 3.82971 2.66175 3.74437 2.54275 3.66488C1.79433 3.19883 0.569333 1.98305 0.195417 1.34671C0.135333 1.25007 0.00816667 1.00575 0 0.875207C0 0.750122 0.042 0.630882 0.127167 0.517097C0.246167 0.375256 0.433417 0.261471 0.6545 0.199123C0.807917 0.158987 1.267 0.0966391 1.27517 0.0966391C1.77742 0.0342913 2.5935 0 3.49533 0C4.35458 0 5.13742 0.0342913 5.64725 0.0853385C5.65542 0.0911836 6.22592 0.153531 6.42133 0.221724C6.77833 0.34681 7 0.591135 7 0.852606V0.875207C6.99125 1.04549 6.76958 1.4036 6.76142 1.4036C6.38692 2.00565 5.222 3.19338 4.44792 3.67073C4.44792 3.67073 4.249 3.80516 4.12475 3.86361C3.94625 3.9548 3.72517 4 3.50408 4C3.25733 4 3.0275 3.94895 2.84025 3.85231Z" fill="black"/>
</svg>
